# xmcd CD database file
#
# Track frame offsets:
#	150
#	25464
#	41234
#	65573
#	87688
#	118996
#	138028
#	165286
#
# Disc length: 2478 seconds
#
# Revision: 0
# Processed by: cddbd v1.5.2PL0 Copyright (c) Steve Scherf et al.
# Submitted via: CDex 1.51
#
DISCID=6f09ac08
DTITLE=Larry Carlton - Larry Carlton
DYEAR=1978
DGENRE=Jazz
TTITLE0=Room 335
TTITLE1=Where Did You Come From
TTITLE2=Nite Crawler
TTITLE3=Point It Up
TTITLE4=Rio Samba
TTITLE5=I Apologize
TTITLE6=Don't Give It Up
TTITLE7=(It Was) Only Yesterday
EXTD=YEAR: 1978
EXTT0=
EXTT1=
EXTT2=
EXTT3=
EXTT4=
EXTT5=
EXTT6=
EXTT7=
PLAYORDER=
